# xmcd
#
# Track frame offsets:
#	150
#	12592
#	24625
#	40145
#	53092
#	65025
#	77667
#	92335
#	106312
#	117812
#	130155
#	141877
#	154032
#	175197
#	185735
#	196765
#	208332
#	220327
#	241812
#	253182
#
# Disc length: 3553 seconds
# Revision: 2
# Processed by: cddbd v1.5.2PL0 Copyright (c) Steve Scherf et al.
# Submitted via: dBpowerAMP V12.0
#
DISCID=1b0ddf14
DTITLE=FRANCIS LAI - FRANCIS LAI
DYEAR=1991
DGENRE=Easy Listening
TTITLE0=UN HOMME ET FEMME
TTITLE1=13 JOURS EN FRANCE
TTITLE2=VIVRE POUR VIVRE
TTITLE3=HELLO GOODBYE
TTITLE4=LE PASSAGER DE LA PLUEI
TTITLE5=LA FONTAINE
TTITLE6=LOVE STORY
TTITLE7=CHARADE
TTITLE8=LAST TANGO IN PARIS
TTITLE9=MIDNIGHT COWBOY
TTITLE10=WINDMILLS OF YOUR MIND
TTITLE11=LE VOYOU
TTITLE12=CLOSE TO YOU
TTITLE13=DU SOLEIL PLEIU YEUX
TTITLE14=DANS LA POUSSEERE DU SOLEIL
TTITLE15=SMIC, SMAC, SMOC
TTITLE16=SONW FROLIC
TTITLE17=LA COURSE DU LIEVRE A TRAVERS LES CHAMPS
TTITLE18=MAIN TITLE FROM MADLY
TTITLE19=ROMEO and JULIET
EXTD=
EXTT0=
EXTT1=
EXTT2=
EXTT3=
EXTT4=
EXTT5=
EXTT6=
EXTT7=
EXTT8=
EXTT9=
EXTT10=
EXTT11=
EXTT12=
EXTT13=
EXTT14=
EXTT15=
EXTT16=
EXTT17=
EXTT18=
EXTT19=
PLAYORDER=
